<svg xmlns="http://www.w3.org/2000/svg" width="1200" height="700" viewBox="0 0 1200 700">
  <defs>
    <linearGradient id="g3" x1="0" y1="0" x2="1" y2="1">
      <stop offset="0" stop-color="#2b6cb0" stop-opacity="0.92"/>
      <stop offset="1" stop-color="#0ea5e9" stop-opacity="0.78"/>
    </linearGradient>
    <filter id="s" x="-20%" y="-20%" width="140%" height="140%">
      <feDropShadow dx="0" dy="10" stdDeviation="14" flood-color="#111827" flood-opacity="0.10"/>
    </filter>
  </defs>
  <rect width="1200" height="700" rx="36" fill="#ffffff"/>
  <rect x="40" y="40" width="1120" height="620" rx="28" fill="#fbfbf9" stroke="#e7e7e3"/>
  <text x="90" y="120" font-family="ui-sans-serif, system-ui" font-size="34" font-weight="800" fill="#111827">High-Volume Event Monitoring</text>
  <text x="90" y="165" font-family="ui-sans-serif, system-ui" font-size="18" fill="#4b5563">Near-live dashboards for venues, peak traffic, and incident response</text>

  <g filter="url(#s)">
    <rect x="90" y="220" width="720" height="250" rx="22" fill="#ffffff" stroke="#e7e7e3"/>
    <text x="120" y="260" font-family="ui-sans-serif, system-ui" font-size="14" font-weight="800" fill="#111827">Live KPIs (15–60 min refresh)</text>

    <g opacity="0.35" stroke="#e5e7eb">
      <path d="M140 300 H780"/><path d="M140 340 H780"/><path d="M140 380 H780"/><path d="M140 420 H780"/>
    </g>
    <path d="M140 420 L220 380 L300 400 L380 350 L460 370 L540 315 L620 330 L700 290" fill="none" stroke="url(#g3)" stroke-width="6" stroke-linecap="round" stroke-linejoin="round"/>
    <circle cx="700" cy="290" r="8" fill="#2b6cb0"/>

    <rect x="480" y="270" width="150" height="72" rx="16" fill="#eef6ff" stroke="#cfe3fb"/>
    <text x="500" y="302" font-family="ui-sans-serif, system-ui" font-size="12" fill="#1e3a8a" font-weight="800">Browsing SR</text>
    <text x="500" y="326" font-family="ui-sans-serif, system-ui" font-size="18" fill="#111827" font-weight="900">98.4%</text>

    <rect x="640" y="270" width="150" height="72" rx="16" fill="#ffffff" stroke="#e7e7e3"/>
    <text x="660" y="302" font-family="ui-sans-serif, system-ui" font-size="12" fill="#4b5563" font-weight="800">Drop Rate</text>
    <text x="660" y="326" font-family="ui-sans-serif, system-ui" font-size="18" fill="#111827" font-weight="900">0.6%</text>
  </g>

  <g filter="url(#s)">
    <rect x="90" y="490" width="720" height="150" rx="22" fill="#ffffff" stroke="#e7e7e3"/>
    <text x="120" y="530" font-family="ui-sans-serif, system-ui" font-size="14" font-weight="800" fill="#111827">Incident timeline</text>
    <rect x="140" y="555" width="640" height="16" rx="8" fill="#e5e7eb"/>
    <rect x="140" y="555" width="380" height="16" rx="8" fill="url(#g3)" opacity="0.55"/>
    <rect x="540" y="547" width="6" height="32" rx="3" fill="#111827" opacity="0.35"/>
    <text x="120" y="615" font-family="ui-sans-serif, system-ui" font-size="12" fill="#4b5563">Auto-generated alerts + verification workflow</text>
  </g>

  <g filter="url(#s)">
    <rect x="830" y="220" width="280" height="420" rx="22" fill="#ffffff" stroke="#e7e7e3"/>
    <text x="860" y="265" font-family="ui-sans-serif, system-ui" font-size="16" font-weight="900" fill="#111827">Ops actions</text>

    <rect x="860" y="295" width="220" height="64" rx="16" fill="#eef6ff" stroke="#cfe3fb"/>
    <text x="880" y="325" font-family="ui-sans-serif, system-ui" font-size="13" font-weight="800" fill="#1e3a8a">Alert → Triage</text>
    <text x="880" y="346" font-family="ui-sans-serif, system-ui" font-size="12" fill="#4b5563">Auto-prioritize by impact</text>

    <rect x="860" y="372" width="220" height="64" rx="16" fill="#ffffff" stroke="#e7e7e3"/>
    <text x="880" y="402" font-family="ui-sans-serif, system-ui" font-size="13" font-weight="800" fill="#111827">Fix → Verify</text>
    <text x="880" y="423" font-family="ui-sans-serif, system-ui" font-size="12" fill="#4b5563">Close loop with testing</text>

    <rect x="860" y="449" width="220" height="64" rx="16" fill="#ffffff" stroke="#e7e7e3"/>
    <text x="880" y="479" font-family="ui-sans-serif, system-ui" font-size="13" font-weight="800" fill="#111827">Report</text>
    <text x="880" y="500" font-family="ui-sans-serif, system-ui" font-size="12" fill="#4b5563">Executive-ready summary</text>

    <text x="860" y="590" font-family="ui-sans-serif, system-ui" font-size="12" fill="#4b5563">Ideal for stadiums and high-visibility releases.</text>
  </g>
</svg>
